# xmcd
#
# Track frame offsets:
#	150
#	13583
#	27292
#	41210
#	52475
#	66448
#	76927
#	88539
#	100970
#	113852
#	133614
#	148278
#	162122
#	175633
#	188053
#
# Disc length: 2653 seconds
#
# Revision: 1
# Processed by: cddbd v1.5.2PL0 Copyright (c) Steve Scherf et al.
# Submitted via: audiograbber 1.83.01
#
DISCID=d10a5b0f
DTITLE=Merle Haggard - CB90299
DYEAR=1900
DGENRE=Country
TTITLE0=Merle Haggard - The  Roots of My Raising
TTITLE1=Merle Haggard - I Wonder If They Ever Think Of Me
TTITLE2=Merle Haggard - The Emptiest Arms In The World
TTITLE3=Merle Haggard - Jesus,  Take A Hold
TTITLE4=Merle Haggard - I Can't Be Myself
TTITLE5=Merle Haggard - The Legend Of Bonnie And Clyde
TTITLE6=Merle Haggard - From Graceland To The Promiseland
TTITLE7=Merle Haggard - Rainbow Stew
TTITLE8=Merle Haggard - Turnin' Off A Memory
TTITLE9=Merle Haggard - Are The Good Times Really Over (I Wish A Buck Was Still
TTITLE9=Silver)
TTITLE10=Merle Haggard - My Own Kinda Of Hat
TTITLE11=Merle Haggard - I'm ALways On A Mountain When I Fall
TTITLE12=Merle Haggard - It's Been A Great Afternoon
TTITLE13=Merle Haggard - Red Bandana
TTITLE14=Merle Haggard - Soldier's Last Letter
EXTD=Karaoke
EXTT0=
EXTT1=
EXTT2=
EXTT3=
EXTT4=
EXTT5=
EXTT6=
EXTT7=
EXTT8=
EXTT9=
EXTT10=
EXTT11=
EXTT12=
EXTT13=
EXTT14=
PLAYORDER=
